<?xml version="1.0" standalone="no"?>
<!DOCTYPE svg PUBLIC "-//W3C//DTD SVG 1.1//EN" "http://www.w3.org/Graphics/SVG/1.1/DTD/svg11.dtd" >
<!--
2013-9-30: Created.
-->
<svg>
<metadata>
Created by iconfont
</metadata>
<defs>

<font id="iconfont" horiz-adv-x="1024" >
  <font-face
    font-family="iconfont"
    font-weight="500"
    font-stretch="normal"
    units-per-em="1024"
    ascent="896"
    descent="-128"
  />
    <missing-glyph />
    
    <glyph glyph-name="-direction" unicode="&#58925;" d="M920.724869 789.76956l-335.967798-780.056082L465.555202 351.72696900000005 121.685433 454.996984 920.728962 789.76956M1004.03018 891.503593c-6.094812 0-13.508665-1.723248-22.087041-5.315052L28.1532 484.05274c-34.355459-14.474666-36.526915-42.376133-4.858658-62.012356l394.962423-122.667807 129.232316-400.338874c9.267061-15.068184 20.481474-22.537296 31.253818-22.537296 11.902074 0 23.27203 9.086959 31.017434 27.056216l407.878594 946.752662C1028.694929 875.99641 1022.393409 891.503593 1004.03018 891.503593L1004.03018 891.503593 1004.03018 891.503593zM1004.03018 891.503593"  horiz-adv-x="1024" />

    
    <glyph glyph-name="-moeny" unicode="&#58896;" d="M494.802828 805.515173c53.903677 0 106.161878-10.5421 155.320485-31.334659 47.515177-20.09671 90.200348-48.88129 126.871549-85.552491 36.671201-36.671201 65.455781-79.357396 85.552491-126.871549 20.792559-49.158606 31.335682-101.415784 31.335682-155.319461 0-49.070602-8.785084-96.954169-26.110681-142.321426-16.741289-43.839461-40.947598-84.107583-71.942519-119.68487l-20.512173-23.544229-23.906479-20.095687c-35.201733-29.589922-74.79038-52.668547-117.665887-68.595284-44.36544-16.480346-91.112114-24.837688-138.942469-24.837688-53.903677 0-106.160855 10.543124-155.319461 31.335682-47.514153 20.09671-90.200348 48.88129-126.870526 85.552491-36.671201 36.671201-65.455781 79.357396-85.552491 126.871549-20.791535 49.158606-31.334659 101.414761-31.334659 155.319461s10.543124 106.160855 31.334659 155.319461c20.09671 47.514153 48.88129 90.200348 85.552491 126.871549 36.671201 36.671201 79.357396 65.455781 126.870526 85.552491C388.641973 794.973072 440.898127 805.515173 494.802828 805.515173M494.802828 870.040768C238.761384 870.040768 31.200094 662.478456 31.200094 406.437012c0-256.040421 207.561289-463.602733 463.602733-463.602733 113.530706 0 217.526245 40.814568 298.125935 108.564601l137.309272-137.309272c7.054673-7.05672 16.302291-10.584056 25.548886-10.584056 9.247618 0 18.495236 3.527336 25.551956 10.584056 14.109346 14.110369 14.109346 36.990472 0 51.101865l-136.856971 136.854924c70.951959 81.440847 113.925702 187.896414 113.925702 304.390615C958.406584 662.478456 750.844272 870.040768 494.802828 870.040768L494.802828 870.040768zM452.874903 698.5499990000001l63.35698-247.579725 72.406077 71.90568 34.304294-34.541701-84.36341-83.780125 47.278793-47.606251 84.361363 83.781148 34.742269-34.984792-84.361363-83.781148 68.827575-69.305459-43.397393-43.098587-68.827575 69.306482-87.464027-86.860277-34.741245 34.984792 87.460957 86.860277-47.27777 47.605228-87.463004-86.859253-34.304294 34.541701 74.620511 74.105788-246.25045 65.945945 48.932456 48.597835c119.624495-35.425837 194.34529-59.003835 224.169549-70.724785l0.884137 0.877997c-5.398964 11.639085-14.06432 37.338397-25.989931 77.103052l-43.181475 147.550521L452.874903 698.5499990000001z"  horiz-adv-x="1024" />

    
    <glyph glyph-name="-etc" unicode="&#58968;" d="M499.757676 6.5269029999999475l2.417049 16.181541c-96.671737 1.987261-183.954639 41.934065-247.589958 105.565291-65.277726 65.288982-105.641015 155.439188-105.641015 255.067256 0 99.586113 40.36329 189.786461 105.641015 255.070326 65.281819 65.279772 155.440212 105.639992 255.06521 105.639992 99.631138 0 189.783391-40.36022 255.030417-105.639992 65.314565-65.283866 105.639992-155.446351 105.639992-255.070326 0-14.569834-0.845251-28.944216-2.530636-43.046399l70.225411 0c6.716982 0 13.18837-0.804319 19.325138-2.257413 1.49505 14.905478 2.258437 30.010501 2.258437 45.303812 0 124.238582-50.372248 236.742912-131.785465 318.163293C746.357074 782.921595 633.881396 833.291796 509.649977 833.291796c-124.234489 0-236.739842-50.370201-318.157153-131.787512C110.073466 620.0828799999999 59.704288 507.580596 59.704288 383.34099100000003c0-124.233466 50.368154-236.744959 131.788535-318.163293 81.418334-81.419358 193.922664-131.783419 318.157153-131.783419 5.480828 0 10.92891 0.11154 16.366759 0.303922C506.279207-49.16960700000004 495.503792-22.408102999999983 499.757676 6.5269029999999475L499.757676 6.5269029999999475M499.757676 6.5269029999999475M513.215176 427.273573c-7.018857 0-13.801331-1.038656-20.164249-2.990101-36.95261 75.28873-81.9525 147.198503-133.391033 216.428238-11.657504-6.40385-23.312962-12.80463-34.961256-19.207457 35.914978-80.195483 79.84142-154.790412 131.284045-224.209458-7.77815-11.269671-12.378935-24.919553-12.378935-39.639812 0-38.445614 31.203676-69.607334 69.609381-69.607334 38.444591 0 69.605288 31.16172 69.605288 69.607334 0 4.79112-0.454348 9.437953-1.37123 13.954827 42.701544 37.798884 81.567737 81.416288 115.378797 132.708488-10.964726 10.429537-21.928429 20.852934-32.924877 31.276331-44.893466-33.419134-84.680635-72.176856-120.252805-115.301026C534.45185 424.739866 524.101107 427.273573 513.215176 427.273573L513.215176 427.273573 513.215176 427.273573M513.215176 427.273573M947.189102-39.34382100000005c0.527003-1.75497 0.895393-3.575432 0.895393-5.502317 0-10.576893-8.563026-19.142989-19.127639-19.142989-10.565636 0-19.129686 8.566096-19.129686 19.142989 0 0.022513 0.005117 0.039909 0.005117 0.063445l-0.500397 0c-4.981455 80.131015-71.342862 143.628188-152.706961 143.628188-81.369216 0-147.729599-63.498196-152.712077-143.628188l-0.450255 0c0-0.022513 0.004093-0.039909 0.004093-0.063445 0-10.576893-8.56405-19.142989-19.128663-19.142989s-19.128663 8.566096-19.128663 19.142989c0 1.816369 0.332575 3.535523 0.802272 5.200442 5.557576 72.712045 51.486628 134.103254 115.609041 161.453159-29.824259 21.757536-49.28345 56.877405-49.28345 96.623641 0 66.068741 53.540404 119.636774 119.589702 119.636774 66.047252 0 119.591749-53.568033 119.591749-119.636774 0-38.33919-18.102287-72.381517-46.145993-94.276177C892.596739 98.22639500000002 941.33579 35.529447000000005 947.189102-39.34382100000005L947.189102-39.34382100000005zM833.180512 218.431104c0 44.887326-36.443004 81.270978-81.395822 81.270978-44.953841 0-81.395822-36.383652-81.395822-81.270978 0-44.87914 36.44198-81.264838 81.395822-81.264838C796.737508 137.16626499999995 833.180512 173.551964 833.180512 218.431104L833.180512 218.431104z"  horiz-adv-x="1024" />

    
    <glyph glyph-name="-topay" unicode="&#58883;" d="M991.505334 896h-959.010668v-609.023673h118.466024v-115.426524c0-136.24044 68.340228-274.940461 71.248851-280.778015l9.344149-18.75148H792.44631l9.346405 18.75148c2.908623 5.837554 71.246595 144.537575 71.246595 280.778015v115.426524h118.466024V896z m-67.694871-179.718599C868.363851 729.145683 824.651017 772.860774 811.786735 828.305129h112.023728v-112.023728zM742.82597 354.671197H349.53231v84.336527c0 54.747098-44.538712 99.28581-99.28581 99.28581-28.309995 0-53.871578-11.930093-71.975443-31.001994a217.10422 217.10422 0 0 1-78.08152 28.303225v111.725871c92.861567 14.574706 166.409788 88.122926 180.984493 180.984493H742.82597c14.574706-92.861567 88.12067-166.409788 180.984493-180.984493v-111.667202c-92.861567-14.572449-166.409788-88.12067-180.984493-180.982237zM212.213265 828.305129C199.348983 772.860774 155.633892 729.145683 100.189537 716.281401V828.305129h112.023728zM100.189537 354.671197v112.057576a149.456735 149.456735 0 0 0 50.913312-22.449875 99.579155 99.579155 0 0 1-0.142159-5.271174v-84.336527h-50.771153z m174.066077-414.956018c-17.46979 40.267166-55.600054 138.821871-55.600054 231.834624V439.007724c0 17.420147 14.170793 31.59094 31.59094 31.590939s31.59094-14.170793 31.59094-31.590939v-309.986096h33.847435c111.540838 0 204.233168-82.265063 220.590506-189.306449H274.255614z m531.088826 231.834624c0-93.019522-38.134777-191.583253-55.600054-231.834624h-145.169394c-15.52469 133.392743-121.652196 239.520248-255.042682 255.042682v92.218466h455.81213v-115.426524z m6.442295 183.121394c12.864282 55.444356 56.577116 99.159447 112.023728 112.023729v-112.023729h-112.023728zM512 743.801622c-83.98677 0-152.313459-68.326689-152.313459-152.313459s68.326689-152.313459 152.313459-152.313459 152.313459 68.326689 152.313459 152.313459-68.326689 152.313459-152.313459 152.313459z m0-236.932047c-46.659818 0-84.618588 37.95877-84.618588 84.618588s37.95877 84.618588 84.618588 84.618589 84.618588-37.95877 84.618588-84.618589-37.95877-84.618588-84.618588-84.618588z"  horiz-adv-x="1024" />

    
    <glyph glyph-name="-treatment" unicode="&#59150;" d="M1183.127363 454.801373a158.057036 158.057036 0 0 1-215.215725 0A139.749641 139.749641 0 0 1 923.357254 352.928549a155.996256 155.996256 0 0 1 0.974478-17.221092 260.840437 260.840437 0 0 1-75.258409-73.74078 243.363744 243.363744 0 0 1-41.535101-134.861279v-1.453729c0-54.762434-23.563183-104.285055-61.551826-140.244867a215.918627 215.918627 0 0 0-148.791513-58.388768c-58.149142 0-110.818846 22.365055-148.887363 58.388768s-61.663651 85.929735-61.663651 141.011669v120.72337h48.803744c98.21454 0 187.578908 38.004618 252.229891 99.300842s104.860156 145.868081 104.860156 238.842808V809.351388A83.693229 83.693229 0 0 1 766.00312 869.960686 92.990702 92.990702 0 0 1 701.879314 895.201248H639.800312c-15.847239 0-28.75507-12.10908-28.75507-27.157566v-117.480437c0-15.000562 12.875881-27.157566 28.75507-27.157566h57.15869v-138.120188c0-68.037691-29.521872-130.020842-76.871888-174.942652a268.764056 268.764056 0 0 0-184.719376-72.798252H358.000624a268.588331 268.588331 0 0 0-184.671451 72.830202c-47.525741 44.92181-76.967738 106.904961-76.967738 174.942652v138.184088h57.25454c15.831264 0 28.611295 12.093105 28.611295 27.157566V868.043682c0 15.000562-12.780031 27.157566-28.611295 27.157566H91.536973a92.655226 92.655226 0 0 1-64.075881-25.240562A83.405679 83.405679 0 0 1 0.798752 809.351388V585.285491c0-93.006677 40.161248-177.658409 104.876131-238.874758 58.324867-55.241685 136.746334-91.552949 223.650546-98.21454v-121.809672c0-70.002621 29.969173-133.519376 78.405491-179.383713s115.547457-74.204056 189.463963-74.204056 140.883869 28.387644 189.320187 74.251981c48.180718 45.560811 78.038066 108.534415 78.533292 177.929985v2.12468a190.34259 190.34259 0 0 0 32.509204 105.786708 205.439002 205.439002 0 0 0 45.736537 48.596069 144.126802 144.126802 0 0 1 24.66546-30.512325 158.312637 158.312637 0 0 1 215.215726 0c27.493042 25.991388 44.506459 62.142902 44.506458 101.952699a139.813541 139.813541 0 0 1-44.554384 101.872824zM668.555382 777.720811v63.261155h33.403807a34.633885 34.633885 0 0 0 23.579157-9.281498 30.352574 30.352574 0 0 0 0-44.730109 34.633885 34.633885 0 0 0-23.579157-9.281498z m-600.661466 9.281498a30.352574 30.352574 0 0 0 0 44.730109 34.298409 34.298409 0 0 0 23.579157 9.281498h33.403807v-63.261155H91.536973a34.298409 34.298409 0 0 0-23.643057 9.249548z m1047.643057-472.110328a59.107644 59.107644 0 0 0-80.194695 0 51.615351 51.615351 0 0 0 0 75.961311 59.107644 59.107644 0 0 0 80.194695 0 51.807051 51.807051 0 0 0 0-75.961311z"  horiz-adv-x="1228" />

    
    <glyph glyph-name="-service" unicode="&#58880;" d="M996.936 788.483c-62.561 62.555-145.847 96.975-234.543 96.975s-172.021-34.454-234.577-97.016l-231.515-231.477c-14.937-14.942-14.937-39.295 0-54.237 7.267-7.225 16.869-11.232 27.12-11.232s19.894 3.97 27.12 11.232l231.477 231.475c48.075 48.075 112.149 74.589 180.343 74.589s132.227-26.479 180.302-74.549c99.435-99.441 99.435-261.205 0-360.679l-387.725-387.764-387.798 387.723c-99.441 99.435-99.441 261.246 0 360.645 47.994 47.994 111.687 74.434 179.355 74.434 12.219 0 24.622-0.872 36.839-2.611 1.819-0.265 3.629-0.381 5.449-0.381 18.946 0 35.251 14.187 37.934 32.984 2.948 20.954-11.687 40.393-32.602 43.347-15.432 2.228-31.13 3.324-46.748 3.324-35.066 0-69.52-5.366-102.464-15.998-50.118-16.189-94.557-43.382-132.042-80.828-129.319-129.318-129.319-339.804 0.039-469.117l414.879-414.886c7.225-7.22 16.869-11.231 27.12-11.231s19.859 3.97 27.12 11.231l414.885 414.886c129.387 129.353 129.353 339.8 0.035 469.159v0zM996.936 788.483z"  horiz-adv-x="1113" />

    
    <glyph glyph-name="-hospital-icon" unicode="&#58972;" d="M511.998-64.44899999999996c-3.761 0-7.522 0.65-11.112 1.946C317.532 3.719000000000051 222.958 107.68600000000004 175.91 183.24c-51.99 83.486-59.395 151.878-59.685 154.748a32.987 32.987 0 0 0-0.165 3.287V679.75a32.71 32.71 0 0 0 22.474 31.07L501.757 830.55a32.693 32.693 0 0 0 20.483 0L885.466 710.8199999999999c13.413-4.418 22.474-16.949 22.474-31.07v-338.473c0-1.096-0.055-2.194-0.165-3.287-0.291-2.87-7.697-71.262-59.685-154.748-47.052-75.556-141.622-179.523-324.978-245.744a32.697 32.697 0 0 0-11.114-1.946zM181.49 343.32500000000005c1.258-8.795 10.433-63.256 51.92-128.612 58.969-92.888 152.663-164.031 278.588-211.572 125.929 47.54 219.62 118.683 278.59 211.572 41.358 65.15 50.604 119.478 51.92 128.641V656.087L511.999 765.033 181.49 656.087v-312.762zM332.671 474.75h358.657v-89.665H332.67V474.75zM467.167 609.248h89.664v-358.66h-89.664v358.66z"  horiz-adv-x="1024" />

    
    <glyph glyph-name="-smile" unicode="&#58897;" d="M509.2-62.60000000000002c-245.3 0-444.8 199.5-444.8 444.8S263.9 827 509.2 827 954 627.5 954 382.20000000000005 754.5-62.60000000000002 509.2-62.60000000000002z m0 834.2c-214.7 0-389.5-174.7-389.5-389.5s174.7-389.5 389.5-389.5c214.7 0 389.5 174.7 389.5 389.5S723.9 771.6 509.2 771.6zM663.4 452.9c-29.5 0-53.4 24-53.4 53.4 0 29.5 24 53.4 53.4 53.4 29.5 0 53.4-24 53.4-53.4s-24-53.4-53.4-53.4zM355 452.9c-29.5 0-53.4 24-53.4 53.4 0 29.5 24 53.4 53.4 53.4 29.5 0 53.4-24 53.4-53.4s-23.9-53.4-53.4-53.4zM509.2 150.79999999999995c-103.1 0-195.3 65.5-229.4 162.9-2.7 7.8-1.6 16.1 3.2 22.8 4.7 6.6 12 10.4 20.2 10.4h1.7c10.5 0 19.9-6.8 23.5-16.9 27.1-76.5 99.7-128 180.8-128S662.9 253.5 690 330c3.6 10.1 13 16.9 23.5 16.9h1.7c8.1 0 15.5-3.8 20.2-10.4 4.8-6.7 5.9-15 3.2-22.8-34.1-97.4-126.3-162.9-229.4-162.9z"  horiz-adv-x="1024" />

    
    <glyph glyph-name="-card" unicode="&#58948;" d="M453.388 207.812h256.88v-25.688h-256.88v25.688zM145.128 130.75h565.14v-25.688h-565.14V130.75zM684.58 387.63H530.456c-14.204 0-25.693-11.49-25.693-25.687v-77.062c0-14.204 11.49-25.689 25.693-25.689H684.58c14.204 0 25.688 11.485 25.688 25.689v77.062c0 14.196-11.484 25.687-25.688 25.687z m0-102.75H530.456v77.063H684.58v-77.062zM991.41 417.236l-181.349 310.01c-22.177 37.81-63.318 61.237-107.441 61.237-21.525 0-42.821-5.617-61.614-16.232l-374.01-211.424-79.17-44.754H119.44c-42.546 0-77.062-34.49-77.062-77.062v-359.642c0-42.539 34.516-77.062 77.062-77.062h616.52c42.546 0 77.062 34.522 77.062 77.062v94.68l25.21 14.222 107.396 60.606c28.923 16.309 49.619 42.949 58.275 74.935 8.606 31.835 4.169 65.024-12.493 93.424zM761.647 79.36900000000003c0-14.172-11.515-25.687-25.687-25.687H119.44c-14.172 0-25.688 11.515-25.688 25.687V439.01c0 14.17 11.515 25.687 25.688 25.687h616.52c3.537 0 6.894-0.728 9.984-2.01 9.18-3.914 15.653-13.042 15.653-23.658V145.04999999999995l0.05 0.025v-65.705z m158.721 214.263l-107.345-60.579V439.011c0 12.818-3.434 24.704-8.956 35.345-12.817 24.71-38.333 41.743-68.156 41.743H292.287L666.3 727.527c11.484 6.492 24.002 9.582 36.322 9.582 25.183 0 49.646-12.87 63.088-35.8l181.375-310.04c20.018-34.166 7.954-78.091-26.716-97.637z"  horiz-adv-x="1024" />

    
    <glyph glyph-name="-wait" unicode="&#59057;" d="M866.9 706.3v44.8c0 24.8-20.6 44.9-46.1 44.9H198.3c-25.5 0-46.1-20.1-46.1-44.9v-44.8c0-148.1 99.3-280.4 233.6-334.9C251.5 323.1 152.2 204.10000000000002 152.2 56v-44.9c0-24.8 20.7-44.8 46.1-44.8h622.5c25.5 0 46.1 20.1 46.1 44.8V56c0 150.5-88.8 269.2-220.1 315.4 131.3 52.3 220.1 184.5 220.1 334.9zM473.8 241.20000000000005c-1.6 0-3.1 0.2-4.5 0.5-74.7-2.4-134.5-62-134.5-135.3v-0.7h-0.3c0-10.6-8.8-19.2-19.8-19.2-10.9 0-19.7 8.6-19.7 19.2 0 96 80.1 173.9 178.8 173.9 10.9 0 19.8-8.6 19.8-19.2s-8.8-19.2-19.8-19.2z m-32.7 148.3h1.1c5.5 0.7 10.9 0.9 16.4 0.6 0 0-6-0.7-16.4-0.6-0.2 0-0.3 0-0.5-0.1-0.2 0-0.4 0.1-0.6 0.1z m32.7 98.7c-98.7 0-178.8 77.9-178.8 173.9 0 10.6 8.8 19.2 19.7 19.2 10.9 0 19.8-8.6 19.8-19.2 0-1.5-0.2-3-0.5-4.4 2.5-72.7 63.8-130.8 139.1-130.8h0.8v-0.3c10.9 0 19.8-8.6 19.8-19.2s-8.9-19.2-19.9-19.2z"  horiz-adv-x="1024" />

    
    <glyph glyph-name="-money-order" unicode="&#59338;" d="M205.8 704h612.5c21.1 0 38.3 14.4 38.3 32s-17.2 32-38.3 32H205.8c-21.1 0-38.3-14.4-38.3-32s17.2-32 38.3-32z m230.1-326.9l-0.1-0.1 0.1 0.1z m452.9 262.3H137.2c-21.1 0-38.3-17.8-38.3-39.6V7c0-21.8 17.2-39.6 38.3-39.6h751.5c21.1 0 38.3 17.8 38.3 39.6V599.8c0.1 21.8-17.2 39.6-38.2 39.6zM637.1 255.10000000000002c21.1 0 38.3-16 38.3-35.5s-17.3-35.5-38.3-35.5h-91.7v-85.8c0-21.8-15.5-39.6-34.4-39.6s-34.4 17.8-34.4 39.6v85.8h-91.7c-21.1 0-38.3 16-38.3 35.5s17.2 35.5 38.3 35.5h91.7V306h-91.7c-21.1 0-38.3 16-38.3 35.5s17.2 35.5 38.3 35.5h50.8L417 414l-22.3 43.9c-9.8 19.3-4.1 42.5 12.6 51.6 16.7 9.1 38.4 0.7 48.2-18.6l17.9-35.3c0.3-0.6 0.6-1.1 0.9-1.7l18.4-36.3 0.1 0.1 18.6-36.7 18.6 36.7 0.1-0.1 18.4 36.3c0.3 0.6 0.6 1.1 0.9 1.7l17.9 35.3c9.8 19.3 31.5 27.6 48.2 18.6 16.7-9.1 22.4-32.3 12.6-51.6l-22-43.9-18.8-37-0.1 0.1v-0.1h49.9c21.1 0 38.3-16 38.3-35.5S658.1 306 637.1 306h-91.7v-50.9h91.7z"  horiz-adv-x="1024" />

    
    <glyph glyph-name="-book" unicode="&#58924;" d="M460.928 262.48800000000006c0 136.856 110.928 247.8 247.784 247.8a246.64 246.64 0 0 0 112.832-27.2V654.992h-213.68v65.024h-69.744v-65.024H358.584v66.504h-69.736v-66.504H76.664v-569.792h459c-46.088 45-74.736 107.784-74.736 177.288zM181.752 473.248h142.752v-32H181.752v32z m178-138.752H181.504v32h178.248v-32zM708.704 473.176c-116.376 0-210.68-94.32-210.68-210.704 0-116.36 94.304-210.68 210.68-210.68 116.368 0 210.696 94.32 210.696 210.68 0 116.384-94.328 210.704-210.696 210.704z m44.008-263.184h-88V314.99199999999996h32v-73h56v-32z"  horiz-adv-x="1024" />

    
    <glyph glyph-name="-notice" unicode="&#58881;" d="M470.698667-67.58399999999995a102.4 102.4 0 0 0-68.266667 26.624L195.925333 145.06666700000005H102.4a102.4 102.4 0 0 0-102.4 102.4v273.066666a102.4 102.4 0 0 0 102.4 102.4h93.525333l206.848 186.026667a102.4 102.4 0 0 0 170.666667-75.434667v-699.050666A102.4 102.4 0 0 0 512-59.733333000000016a102.4 102.4 0 0 0-41.301333-7.850667zM102.4 539.989333a19.797333 19.797333 0 0 1-20.48-19.456v-273.066666a19.797333 19.797333 0 0 1 19.797333-19.797334H211.626667a40.96 40.96 0 0 0 27.648-10.581333l218.794666-197.632a19.797333 19.797333 0 0 1 34.133334 14.677333V733.525333a19.797333 19.797333 0 0 1-34.133334 14.677334L238.933333 550.570667a40.96 40.96 0 0 0-27.648-10.581334zM733.866667 157.35466699999995a40.96 40.96 0 0 0-29.013334 69.973333 219.818667 219.818667 0 0 1 76.117334 161.450667 238.933333 238.933333 0 0 1-74.069334 149.845333 40.96 40.96 0 1 0 53.930667 62.122667 317.098667 317.098667 0 0 0 102.4-208.896 297.301333 297.301333 0 0 0-100.010667-222.208 40.96 40.96 0 0 0-29.354666-12.288zM819.2 1.7066670000000386a40.96 40.96 0 0 0-29.013333 69.973333c102.4 102.4 153.941333 211.968 150.186666 322.218667-6.144 175.104-146.773333 299.008-148.138666 300.373333a40.96 40.96 0 1 0 53.930666 62.122667c6.826667-5.802667 168.96-148.821333 176.128-359.424 4.778667-133.802667-53.930667-262.826667-174.08-383.317334a40.96 40.96 0 0 0-29.013333-11.946666z"  horiz-adv-x="1024" />

    
    <glyph glyph-name="-home" unicode="&#58884;" d="M56.32 467.84L19.2 519.6800000000001 512 871.04l492.8-351.36-37.12-51.84L512 792.96 56.32 467.84zM832 0V448h64v-512H576v320H448v-320H128V448h64v-448h192V320h256v-320h192z"  horiz-adv-x="1024" />

    
    <glyph glyph-name="-flow" unicode="&#58997;" d="M582 228.79999999999995h-44.1V461.6c0 14.2-11.6 25.9-25.9 25.9s-25.9-11.6-25.9-25.9v-232.8H442c-28.5 0-51.7-23.3-51.7-51.7v-155.2c0-28.5 23.3-51.7 51.7-51.7h140c28.5 0 51.7 23.3 51.7 51.7V177.10000000000002c0 28.4-23.3 51.7-51.7 51.7z m0-206.9H442V177.10000000000002h140v-155.2zM874.1 228.79999999999995h-51.7V642.7c0 28.5-23.3 51.7-51.7 51.7H693c-14.2 0-25.9-11.6-25.9-25.9 0-14.2 11.6-25.9 25.9-25.9H770.7v-413.8h-36.5c-28.5 0-51.7-23.3-51.7-51.7v-155.2c0-28.5 23.3-51.7 51.7-51.7h140c28.5 0 51.7 23.3 51.7 51.7V177.10000000000002c-0.1 28.4-23.3 51.7-51.8 51.7z m0-206.9h-140V177.10000000000002h140v-155.2zM582 797.8H442c-28.5 0-51.7-23.3-51.7-51.7v-155.2c0-28.5 23.3-51.7 51.7-51.7h140c28.5 0 51.7 23.3 51.7 51.7V746.1c0 28.5-23.3 51.7-51.7 51.7z m0-206.9H442V746.1h140v-155.2zM330.9 694.4H253.2c-28.5 0-51.7-23.3-51.7-51.7v-413.8h-51.7c-28.5 0-51.7-23.3-51.7-51.7V22c0-28.5 23.3-51.7 51.7-51.7h140c28.5 0 51.7 23.3 51.7 51.7V177.10000000000002c0 28.5-23.3 51.7-51.7 51.7h-36.5V642.7H331c14.2 0 25.9 11.6 25.9 25.9-0.1 14.1-11.7 25.8-26 25.8z m-41-517.3v-155.2h-140V177.10000000000002h140z"  horiz-adv-x="1024" />

    
    <glyph glyph-name="-add-order" unicode="&#59027;" d="M729.6 624c32 0 60.8 19.2 60.8 41.6v160c0 22.4-25.6 41.6-60.8 41.6-32 0-60.8-19.2-60.8-41.6v-160c3.2-22.4 28.8-41.6 60.8-41.6zM630.4 704V784h-240V704h240z m358.4 12.8c0 41.6-32 73.6-73.6 73.6l-86.4-6.4V704h38.4c54.4 0 38.4-32 38.4-80V544H115.2V624c0 51.2 0 80 38.4 80H192V784H115.2C73.6 784 35.2 745.6 35.2 704L32-22.399999999999977C32-64 64-96 105.6-96h809.6c41.6 0 73.6 32 73.6 73.6V716.8z m-320-531.2h-118.4V64c0-22.4-25.6-41.6-38.4-41.6-16 0-38.4 19.2-38.4 41.6v121.6h-124.8c-22.4 0-35.2 25.6-35.2 38.4 0 16 16 38.4 35.2 38.4h124.8v124.8c0 22.4 25.6 35.2 38.4 35.2 16 0 38.4-16 38.4-35.2v-124.8h118.4c22.4 0 41.6-25.6 41.6-38.4 0-12.8-19.2-38.4-41.6-38.4zM294.4 624c32 0 60.8 19.2 60.8 41.6v160C352 844.8 326.4 864 294.4 864c-32 0-60.8-19.2-60.8-41.6v-160c0-19.2 25.6-38.4 60.8-38.4z"  horiz-adv-x="1024" />

    
    <glyph glyph-name="zhuyuanguanli" unicode="&#58882;" d="M294.4 384C377.6 384 448 448 448 531.2c0 83.2-70.4 147.2-153.6 147.2-83.2 0-153.6-64-153.6-147.2C140.8 448 204.8 384 294.4 384z m0 38.4c-64 0-115.2 44.8-115.2 108.8S230.4 640 294.4 640s115.2-44.8 115.2-108.8c-6.4-64-57.6-108.8-115.2-108.8zM819.2 640H448v-300.8H134.4V729.6h-128V44.799999999999955h128v128h748.8v-128h128V448c6.4 108.8-83.2 192-192 192z m0-38.4c83.2 0 160-70.4 160-153.6v-371.2h-51.2v134.4H96v-134.4H51.2V684.8h44.8v-384h390.4V601.6h332.8z"  horiz-adv-x="1024" />

    
    <glyph glyph-name="-set" unicode="&#58949;" d="M569.92-93.12h-117.12a90.24 90.24 0 0 0-89.6 90.24v28.8a375.68 375.68 0 0 0-81.6 48.32l-50.56-29.44a91.52 91.52 0 0 0-122.56 32l-58.24 103.04a90.56 90.56 0 0 0 32 123.2l49.92 28.8A352 352 0 0 0 128 380.15999999999997a360.96 360.96 0 0 0 3.52 48l-49.92 29.12a90.56 90.56 0 0 0-32 122.88l58.88 102.08a91.52 91.52 0 0 0 122.56 32l50.56-29.12a394.56 394.56 0 0 0 81.6 48.32v28.8a89.6 89.6 0 0 0 89.6 89.92h117.12a89.6 89.6 0 0 0 89.6-89.92v-28.8a402.24 402.24 0 0 0 81.6-48.32l50.56 29.12a91.52 91.52 0 0 0 122.56-32l58.24-102.08a90.56 90.56 0 0 0-32-122.88l-49.92-29.12a360.96 360.96 0 0 0 3.52-48 365.76 365.76 0 0 0-3.52-48.32l49.92-29.12a90.56 90.56 0 0 0 32-122.88l-58.24-102.08a91.84 91.84 0 0 0-122.56-32l-50.56 29.44a368 368 0 0 0-81.6-48.32v-28.8a90.24 90.24 0 0 0-89.6-90.24zM288 150.08000000000004l16.96-14.4a312 312 0 0 1 99.84-59.2l20.8-7.68v-71.68a27.52 27.52 0 0 1 27.2-27.84h117.12a25.92 25.92 0 0 1 19.2 8.32 27.52 27.52 0 0 1 8 19.52v71.68l20.8 7.68a312 312 0 0 1 99.84 59.2l16.96 14.4 88.32-51.52a27.52 27.52 0 0 1 36.8 10.24l58.56 102.08a27.84 27.84 0 0 1-9.92 38.08l-87.36 50.88 3.84 21.44a331.2 331.2 0 0 1 7.04 58.88 305.92 305.92 0 0 1-6.08 58.56l-3.84 21.76 86.4 51.52a28.48 28.48 0 0 1 9.92 38.4l-58.24 100.8a27.2 27.2 0 0 1-37.12 10.24L736 609.9200000000001l-16.96 14.72a324.16 324.16 0 0 1-99.84 59.2l-20.8 7.36V763.2a27.52 27.52 0 0 1-27.2 27.52h-118.4a27.52 27.52 0 0 1-27.2-27.52V691.2l-20.48-7.36a316.8 316.8 0 0 1-100.16-59.52L288 609.9200000000001 199.68 661.44a27.84 27.84 0 0 1-37.12-10.24l-58.24-102.08A28.16 28.16 0 0 1 114.24 512l87.36-51.52-3.84-21.76A327.68 327.68 0 0 1 192 380.15999999999997 301.12 301.12 0 0 1 197.76 320l3.84-21.76-87.36-49.28a27.84 27.84 0 0 1-9.92-38.08l58.24-102.08a28.16 28.16 0 0 1 37.44-10.24z m0 0M512 231.03999999999996a149.12 149.12 0 1 0 149.12 149.12A149.12 149.12 0 0 0 512 231.03999999999996z m0 235.84a87.04 87.04 0 1 1 80-53.76 87.04 87.04 0 0 1-80 53.76z m0 0"  horiz-adv-x="1024" />

    
    <glyph glyph-name="-hospital2" unicode="&#58960;" d="M903.717561 203.67609800000002c-17.982439 0-30.070634-11.988293-30.070634-30.070635v-240.165463H153.150537V173.605463c0 17.982439-11.988293 30.070634-30.070635 30.070635-17.982439 0-30.070634-11.988293-30.070634-30.070635v-240.165463c0-33.067707 26.973659-60.041366 60.041366-60.041366h720.49639c33.067707 0 60.041366 26.973659 60.041366 60.041366V173.605463c0.099902 18.082341-11.88839 30.070634-29.870829 30.070635zM783.534927 563.924293H243.162634c-14.985366 0-30.070634-14.985366-30.070634-30.070634 0-14.985366 14.985366-29.970732 30.070634-29.970732h540.372293c14.985366 0 30.070634 14.985366 30.070634 29.970732 0 15.085268-14.985366 30.070634-30.070634 30.070634z m0 0M513.398732 203.67609800000002c-14.985366 0-30.070634-14.985366-30.070634-30.070635v-60.041365h-60.041366c-14.985366 0-30.070634-14.985366-30.070634-30.070635 0-14.985366 14.985366-30.070634 30.070634-30.070634h60.041366v-60.041366c0-14.985366 14.985366-30.070634 30.070634-30.070634 14.985366 0 30.070634 14.985366 30.070634 30.070634v60.041366H603.510732c14.985366 0 30.070634 14.985366 30.070634 30.070634 0 14.985366-14.985366 30.070634-30.070634 30.070635h-60.041366v60.041365c-0.099902 14.985366-15.085268 30.070634-30.070634 30.070635z m507.404488 240.165463L909.711707 873.122341c-2.997073 11.988293-14.985366 20.979512-30.070634 20.979513H144.159317c-14.985366 0-26.973659-8.99122-30.070634-20.979513L2.997171 443.841561c-2.997073-8.99122-2.997073-20.979512-2.997073-30.070634C0.000098 314.66770699999995 81.020976 233.64682900000003 180.124195 233.64682900000003c75.026732 0 138.065171 45.056 165.138732 108.094439 26.973659-63.038439 90.112-108.094439 165.138732-108.094439S648.466829 278.70282899999995 675.54039 341.741268c26.973659-63.038439 90.012098-108.094439 165.138732-108.094439 99.10322 0 180.124098 81.020878 180.124098 180.124098 2.997073 8.99122 2.997073 21.079415 0 30.070634zM843.676195 293.68819499999995c-48.053073 0-90.112 26.973659-111.091512 72.029659-8.99122 20.979512-30.070634 36.06478-54.04722 36.06478s-45.056-14.985366-54.047219-36.06478c-17.982439-45.056-63.038439-72.029659-111.091512-72.029659s-90.012098 26.973659-111.091512 72.029659c-8.99122 20.979512-30.070634 36.06478-54.04722 36.06478s-45.056-14.985366-54.04722-36.06478c-17.982439-45.056-63.038439-72.029659-111.091512-72.029659-66.035512 0-120.082732 54.04722-120.082731 120.082732v17.982439L168.135902 834.060488h687.528586l105.097366-402.307122v-17.982439c2.997073-66.035512-51.050146-120.082732-117.085659-120.082732z m0 0"  horiz-adv-x="1024" />

    
    <glyph glyph-name="beonduty" unicode="&#58893;" d="M284.752 585.408c6.16-6.976 14.752-12.208 24.224-12.208 9.456 0 18.048 5.232 24.352 12.208 6.32 7.664 10.032 18.304 10.032 29.632 0 11.504-3.728 22.144-10.032 29.984-6.304 7.328-14.912 11.84-24.352 11.84-9.328 0-18.064-4.528-24.224-11.84-6.304-7.84-10.032-18.48-10.032-29.984 0-11.328 3.728-21.968 10.032-29.28v-0.352z m17.04 38.688a9.968 9.968 0 0 0 7.168 3.488c2.864 0 5.44-1.584 7.168-3.488 2.016-2.272 3.008-5.584 3.008-9.072a14.032 14.032 0 0 0-3.008-8.704 9.6 9.6 0 0 0-7.168-3.136 9.568 9.568 0 0 0-7.168 3.136 15.104 15.104 0 0 0-3.008 8.704c0 3.488 1.28 6.8 3.008 9.072z m-110.336-38.688c6.32-6.976 14.768-12.208 24.368-12.208 9.456 0 18.048 5.232 24.208 12.208a47.808 47.808 0 0 1 10.176 29.632c0 11.504-4 22.144-10.176 29.984-6.16 7.328-14.752 11.84-24.208 11.84-9.328 0-18.048-4.528-24.368-11.84a48.832 48.832 0 0 1-10.032-29.984c0-11.328 3.872-21.968 10.032-29.28v-0.352z m17.2 38.688c1.728 1.904 4.304 3.488 7.168 3.488s5.44-1.584 7.168-3.488c2-2.272 2.864-5.584 2.864-9.072a13.968 13.968 0 0 0-2.864-8.704c-1.728-1.92-4.304-3.136-7.168-3.136s-5.44 1.216-7.168 3.136a14.16 14.16 0 0 0-3.008 8.704c0 3.488 1.136 6.8 3.008 9.072zM504.72 896H20.064C9.168 896 0 885.008 0 871.424v-589.28c0-13.616 9.168-24.592 20.064-24.592h484.672c11.04 0 20.352 10.992 20.352 24.592V871.424C525.072 885.008 515.76 896 504.72 896z m-20.368-589.296H40.416V703.5840000000001h443.952v-123.616m-0.016 153.248H40.416V846.848h39.84V810.24c0-13.424 8.896-24.752 20.064-24.752s20.048 11.328 20.048 24.752V846.848h67.936V810.24c0-13.424 8.88-24.752 20.064-24.752s20.064 11.328 20.064 24.752V846.848h67.776V810.24c0-13.424 9.168-24.752 20.208-24.752 11.168 0 20.208 11.328 20.208 24.752V846.848h67.776V810.24c0-13.424 9.168-24.752 20.352-24.752 10.896 0 20.064 11.328 20.064 24.752V846.848h39.536v-113.632z m-106.592-147.808c6.304-6.976 14.896-12.208 24.512-12.208 9.312 0 18.192 5.232 24.08 12.208 6.304 7.664 10.16 18.304 10.16 29.632 0 11.504-3.872 22.144-10.16 29.984-6.32 7.328-14.768 11.84-24.08 11.84-9.616 0-18.208-4.528-24.368-11.84h-0.144a48.736 48.736 0 0 1-10.032-29.984c0-11.328 3.872-21.968 10.032-29.28v-0.352z m17.04 38.688h0.144c2.016 1.904 4.304 3.488 7.328 3.488 2.72 0 5.312-1.584 7.008-3.488a13.76 13.76 0 0 0 3.008-9.072 14.128 14.128 0 0 0-3.008-8.704 9.504 9.504 0 0 0-7.008-3.136 10.24 10.24 0 0 0-7.456 3.136 16.224 16.224 0 0 0-2.864 8.704c0 3.488 1.28 6.8 2.848 9.072z m-16.896-149.728c6.16-7.488 14.752-12.208 24.368-12.208 9.312 0 17.76 4.704 24.08 12.208a47.04 47.04 0 0 1 10.16 29.632c0 11.68-3.872 21.968-10.16 29.632-6.32 7.504-14.768 12.192-24.08 12.192-9.616 0-18.208-4.688-24.368-12.192h-0.144a46.96 46.96 0 0 1-10.032-29.632c0-11.488 3.872-21.776 10.032-29.632h0.144z m16.896 38.336l0.144 0.192c2.016 2.096 4.304 3.472 7.328 3.472 2.72 0 5.312-1.376 7.008-3.472v-0.192a12.736 12.736 0 0 0 3.008-8.704c0-3.488-1.008-6.784-3.008-8.704a8.896 8.896 0 0 0-7.008-3.664c-3.008 0-5.312 1.392-7.328 3.664h-0.144a14.464 14.464 0 0 0-2.864 8.704 15.36 15.36 0 0 0 2.864 8.704z m-203.344-149.712c6.32-7.328 15.04-12.192 24.368-12.192 9.456 0 18.048 4.864 24.208 12.192 6.176 7.84 10.176 18.48 10.176 29.632 0 11.664-4 22.32-10.176 29.632-6.16 7.664-14.752 12.192-24.208 12.192-9.328 0-18.048-4.528-24.368-12.192-6.16-7.312-10.032-17.968-10.032-29.632 0-11.152 3.872-21.792 10.032-29.632z m17.2 38.352c1.728 2.432 4.304 3.472 7.168 3.472s5.44-1.04 7.168-3.472c2-1.936 2.864-5.056 2.864-8.72 0-3.488-0.864-6.448-2.864-8.72-1.728-2.08-4.304-3.488-7.168-3.488s-5.44 1.392-7.168 3.488a13.472 13.472 0 0 0-3.008 8.72c0 3.68 1.136 6.8 3.008 8.72z m-110.352 73.024c6.32-7.488 14.912-12.208 24.368-12.208s17.92 4.704 24.352 12.208c6.304 7.84 10.032 18.128 10.032 29.632 0 11.68-3.728 21.968-10.032 29.632-6.448 7.504-14.896 12.192-24.352 12.192s-18.048-4.688-24.368-12.192c-6.304-7.664-10.016-17.952-10.016-29.632 0-11.488 3.712-21.776 10.016-29.632z m17.2 38.336v0.192a9.344 9.344 0 0 0 7.168 3.472c2.864 0 5.44-1.376 7.168-3.472v-0.192a14.256 14.256 0 0 0 2.864-8.704c0-3.488-1.152-6.784-2.864-8.704a8.976 8.976 0 0 0-7.168-3.664 8.976 8.976 0 0 0-7.168 3.664c-2 1.92-2.864 5.216-2.864 8.704 0 3.488 0.864 6.448 2.864 8.704z m-17.2-149.712c6.32-7.328 14.912-12.192 24.368-12.192s17.92 4.864 24.352 12.192c6.304 7.84 10.032 18.48 10.032 29.632 0 11.664-3.728 22.32-10.032 29.632-6.448 7.664-14.896 12.192-24.352 12.192s-18.048-4.528-24.368-12.192c-6.304-7.312-10.016-17.968-10.016-29.632 0-11.152 3.712-21.792 10.016-29.632z m17.2 38.352a8.4 8.4 0 0 0 7.168 3.472c2.864 0 5.44-1.04 7.168-3.472a13.28 13.28 0 0 0 2.864-8.72 14.336 14.336 0 0 0-2.864-8.72 9.392 9.392 0 0 0-7.168-3.488 9.344 9.344 0 0 0-7.168 3.488c-2 2.272-2.864 5.232-2.864 8.736 0 3.664 0.864 6.784 2.864 8.704z m169.248 73.024c6.16-7.488 14.896-12.208 24.224-12.208 9.456 0 18.048 4.704 24.352 12.208 6.32 7.84 10.032 18.128 10.032 29.632 0 11.68-3.728 21.968-10.032 29.632-6.304 7.504-14.912 12.192-24.352 12.192-9.328 0-18.064-4.688-24.224-12.192-6.304-7.664-10.032-17.952-10.032-29.632 0-11.488 3.728-21.776 10.032-29.632z m17.04 38.336v0.192a9.296 9.296 0 0 0 7.168 3.472c2.864 0 5.44-1.376 7.168-3.472v-0.192a12.656 12.656 0 0 0 3.008-8.704c0-3.488-0.992-6.784-3.008-8.704a8.96 8.96 0 0 0-7.168-3.664 8.928 8.928 0 0 0-7.168 3.664 13.536 13.536 0 0 0-3.008 8.704 14.24 14.24 0 0 0 3.008 8.704z m-17.04-149.712c6.16-7.328 14.896-12.192 24.224-12.192 9.456 0 18.048 4.864 24.352 12.192 6.32 7.84 10.032 18.48 10.032 29.632 0 11.664-3.728 22.32-10.032 29.632-6.304 7.664-14.912 12.192-24.352 12.192-9.328 0-18.064-4.528-24.224-12.192-6.304-7.312-10.032-17.968-10.032-29.632 0-11.152 3.728-21.792 10.032-29.632z m17.04 38.352a8.368 8.368 0 0 0 7.168 3.472c2.864 0 5.44-1.04 7.168-3.472 2.016-1.936 3.008-5.056 3.008-8.72a12.736 12.736 0 0 0-3.008-8.72 9.36 9.36 0 0 0-7.168-3.488 9.28 9.28 0 0 0-7.168 3.488 14.32 14.32 0 0 0-3.008 8.72c0 3.68 1.28 6.8 3.008 8.72z m-110.336 73.024c6.32-7.488 14.768-12.208 24.368-12.208 9.456 0 18.048 4.704 24.208 12.208 6.176 7.84 10.176 18.128 10.176 29.632 0 11.68-4 21.968-10.176 29.632-6.16 7.504-14.752 12.192-24.208 12.192-9.328 0-18.048-4.688-24.368-12.192a47.056 47.056 0 0 1-10.032-29.632c0-11.488 3.872-21.776 10.032-29.632z m17.2 38.336v0.192c1.728 2.096 4.304 3.472 7.168 3.472s5.44-1.376 7.168-3.472v-0.192c2-2.256 2.864-5.216 2.864-8.704 0-3.488-0.864-6.784-2.864-8.704-1.728-2.272-4.304-3.664-7.168-3.664s-5.44 1.392-7.168 3.664c-1.872 1.92-3.008 5.232-3.008 8.704 0 3.488 1.136 6.448 3.008 8.704zM699.344 634.096c135.68 0 246.88-92.496 246.88-205.856 0-56.48-27.632-108.048-72.096-145.568h-0.496l-1.52-1.28c47.52-39.648 102.224-77.584 128.272-130.848a189.68 189.68 0 0 0 20.432-86.528v-63.728a65.76 65.76 0 0 0-16.352-42.848c-10.72-12.768-26.56-22.144-47.264-23.856-1.28-0.4-2.8-0.4-4.336-0.4h-70.032v-26.88c0-16.192-16.608-30.032-36.304-30.032H552.16c-19.92 0-35.76 13.84-35.76 30.032v26.88h-70.544c-2.544 0-5.104 0.208-7.664 0.624-18.896 2.784-33.728 11.728-44.224 23.648-9.968 12.368-15.568 27.696-15.568 42.832v63.728c0 30.688 6.64 59.68 19.936 86.528 26.32 53.056 80.736 91.2 128.768 130.848l-2.032 1.28c-46.512 38.8-72.608 91.216-72.608 145.568 0.016 113.36 111.44 205.856 246.88 205.856z m-154.336-641.072v79.52c0 9.792 9.68 18.112 21.472 18.112 12 0 21.968-8.32 21.968-18.112V-63.42399999999998h222.064V-36.799999999999955l0.272 2.784v106.56c0 9.792 9.696 18.112 21.504 18.112 12.256 0 21.696-8.32 21.696-18.112v-79.52h93.248a17.12 17.12 0 0 1 1.536 7.248V64a142.48 142.48 0 0 1-14.544 63.504h0.24l-0.24 0.224c-22.256 45.184-81.264 85.008-120.896 118.064-34.48-15.12-72.56-23.216-113.968-23.216-41.12 0-79.712 8.096-113.968 23.216-40.368-33.872-98.128-72.24-120.624-118.064-9.696-19.392-14.304-40.72-14.304-63.712v-63.728c0-2.32 0.512-5.328 1.552-7.248h92.992v-0.016z m154.336 581.184c-96.336 0-174.784-65.616-174.784-145.968 0-81.216 79.2-145.568 174.784-145.568 95.6 0 174.784 64.352 174.784 145.568 0 80.752-78.208 145.968-174.784 145.968z"  horiz-adv-x="1024" />

    
    <glyph glyph-name="-user" unicode="&#58958;" d="M240.128-57.34400000000005c-25.6 0-50.176 10.24-68.096 28.16s-27.648 41.472-27.136 66.56c0 163.328 134.144 296.448 299.008 296.448h135.68c164.864 0 299.008-133.12 299.008-296.448 0-52.224-43.008-94.72-95.744-94.72h-542.72z m203.776 336.384c-65.024 0-126.464-25.088-172.544-70.656-46.08-45.568-71.168-106.496-71.168-171.008 0-22.016 17.92-39.424 39.936-39.424H783.36c22.016 0 39.936 17.92 39.936 39.424 0 133.12-109.568 241.664-243.712 241.664H443.904z m67.584 77.312c-61.952 0-119.808 24.064-163.328 67.072-43.52 43.52-68.096 100.864-67.584 162.304 0 126.464 103.936 229.376 231.424 229.376s231.424-102.912 231.424-229.376c-0.512-126.464-103.936-229.376-231.936-229.376z m0 403.456c-96.768 0-176.128-78.336-176.128-174.08 0-96.256 78.848-174.592 176.128-174.592s176.128 78.336 176.128 174.592-78.848 174.08-176.128 174.08zM240.128-52.224000000000046H783.36c50.176 0 90.624 39.936 90.624 89.6 0 161.28-131.584 291.328-293.888 291.328H443.904c-162.304 0-293.888-130.56-293.888-291.328-0.512-49.152 40.448-89.6 90.112-89.6z m203.776 336.384h135.68c137.216 0 248.832-110.592 248.832-246.784 0-24.576-19.968-44.544-45.056-44.544H240.128c-25.088 0-45.056 19.968-45.056 44.544 0 136.192 111.104 246.784 248.832 246.784z m67.584 77.312c124.928 0 226.304 100.352 226.304 224.256s-101.376 224.256-226.304 224.256-225.792-100.352-225.792-224.256c-0.512-123.904 101.376-224.256 225.792-224.256z m0 403.456c100.352 0 181.248-80.384 181.248-179.712s-80.896-179.712-181.248-179.712S330.24 486.4 330.24 585.7280000000001c0.512 98.816 81.408 179.2 181.248 179.2z"  horiz-adv-x="1024" />

    
    <glyph glyph-name="-nodata" unicode="&#58885;" d="M156.182654 205.42868599999997h20.806015c5.611071-0.102392 10.116311-4.689545 10.095832-10.300616a10.157267 10.157267 0 0 0-10.095832-10.300616H156.203132v-20.826494a10.300616 10.300616 0 0 0-10.321094-10.095832 10.136789 10.136789 0 0 0-10.300616 10.095832v20.826494H114.754928a10.300616 10.300616 0 0 0-10.116311 10.300616c0 5.692985 4.443804 10.300616 10.116311 10.300616h20.806015V226.27565800000002a10.300616 10.300616 0 0 0 10.300616 10.095832c5.692985 0 10.321094-4.423326 10.321095-10.095832v-20.826494z m1360.336613 82.445884v20.826494a10.136789 10.136789 0 0 1-10.300616 10.095832 10.300616 10.300616 0 0 1-10.300616-10.095832v-20.826494h-20.826494a10.136789 10.136789 0 0 1-10.095833-10.300616c0-5.529158 4.546196-10.300616 10.095833-10.300616h20.826494v-20.826494c0-5.652028 4.607631-10.095832 10.300616-10.095832 5.611071 0 10.198224 4.50524 10.300616 10.095832v20.826494h20.826493a10.157267 10.157267 0 0 1 10.095833 10.300616 10.300616 10.300616 0 0 1-10.095833 10.300616h-20.826493zM767.748448-52.20958299999995H248.867719a20.519318 20.519318 0 0 0-20.560275 20.62171 20.683145 20.683145 0 0 0 20.560275 20.601232h93.463243a81.913447 81.913447 0 0 0-10.955924 41.12055V628.081593a82.384449 82.384449 0 0 0 82.527798 82.323015h61.742261V731.149188a82.384449 82.384449 0 0 0 82.527797 82.343493h494.511479a82.343493 82.343493 0 0 0 82.527798-82.323015v-597.968162c0-14.969682-3.993281-29.017839-10.976402-41.100072h114.023518c11.385969 0 20.62171-9.153828 20.621711-20.62171 0-11.365491-9.174306-20.601232-20.601232-20.601232H990.942113v-20.724102c0-14.990161-3.993281-29.017839-10.99688-41.120551h11.058315c11.324534 0 20.539797-9.153828 20.539797-20.601232a20.683145 20.683145 0 0 0-20.539797-20.62171H882.570622c9.420046-15.768339 7.37221-36.471962-6.348292-50.171986a41.12055 41.12055 0 0 0-58.281417 0l-50.171986 50.171986z m75.360371 41.222942h65.530758a41.100072 41.100072 0 0 1 41.079594 41.325334V629.044076c0 22.259979-17.816175 40.137589-39.789457 40.137589H412.387437a39.973762 39.973762 0 0 1-39.768978-40.137589v-598.705383c0-22.812895 18.553396-41.325334 41.038637-41.325334h312.86841l-10.587313 10.62827a41.141029 41.141029 0 0 0-10.710183 39.830413l-19.454444 19.474922a144.311015 144.311015 0 0 0-188.462363 217.603072 144.270058 144.270058 0 0 0 217.603072-188.462363l19.454444-19.454444a41.079594 41.079594 0 0 0 39.850892-10.710183l68.909687-68.909687z m147.833294 103.067595h62.008479a41.243421 41.243421 0 0 1 41.038637 41.222942V731.026318a41.100072 41.100072 0 0 1-41.038637 41.222942H557.886197a41.243421 41.243421 0 0 1-41.018158-41.222942v-20.601232h391.546276a82.343493 82.343493 0 0 0 82.527798-82.343493v-536.000639zM264.369839 849.534597h30.717542c8.662347 0 15.665947-6.860251 15.665947-15.440685a15.563555 15.563555 0 0 0-15.645469-15.461163h-30.717542v-30.717542a15.522598 15.522598 0 0 0-15.461163-15.665947 15.563555 15.563555 0 0 0-15.461163 15.665947v30.717542h-30.717543a15.522598 15.522598 0 0 0-15.665947 15.461163 15.563555 15.563555 0 0 0 15.665947 15.440685h30.717543v30.717543c0 8.662347 6.860251 15.665947 15.461163 15.665947a15.563555 15.563555 0 0 0 15.461163-15.665947v-30.717543zM22.213211-31.587872999999945a20.683145 20.683145 0 0 0 20.560275 20.601232h123.791697c11.345012 0 20.539797-9.153828 20.539797-20.601232A20.683145 20.683145 0 0 0 166.544705-52.230061999999975H42.753008a20.519318 20.519318 0 0 0-20.560275 20.621711z m650.00368 133.232221a103.067595 103.067595 0 1 1-145.764979 145.764979 103.067595 103.067595 0 0 1 145.764979-145.764979zM455.043865 586.756259c0 11.365491 9.215263 20.601232 20.580753 20.601232h226.7569a20.601232 20.601232 0 0 0 0-41.222942H475.645097a20.539797 20.539797 0 0 0-20.601232 20.62171z m0-103.067594c0 11.385969 9.174306 20.62171 20.478361 20.62171H805.571982a20.478362 20.478362 0 0 0 20.478362-20.62171c0-11.385969-9.174306-20.601232-20.478362-20.601232H475.501748a20.478362 20.478362 0 0 0-20.478362 20.601232z m0-103.047116c0 11.365491 9.194784 20.601232 20.560275 20.601232h144.37245c11.345012 0 20.560275-9.153828 20.560275-20.601232 0-11.385969-9.194784-20.62171-20.560275-20.621711h-144.37245a20.519318 20.519318 0 0 0-20.560275 20.621711zM63.415675 504.310375a61.844652 61.844652 0 1 0 0 123.668827 61.844652 61.844652 0 0 0 0-123.689305z m0 30.922326a30.922326 30.922326 0 1 1 0.020478 61.824174 30.922326 30.922326 0 0 1 0-61.844652z m1277.911207 92.746501a61.844652 61.844652 0 1 0 0 123.668826 61.844652 61.844652 0 0 0 0-123.689305z m0 30.922326a30.922326 30.922326 0 1 1 0 61.824174 30.922326 30.922326 0 0 1 0-61.844652z"  horiz-adv-x="1557" />

    
    <glyph glyph-name="-lineup" unicode="&#58953;" d="M64.065808 42.960734z m500.644127 527.377552c-29.163736 9.721245-116.654942 14.581868-126.376187-41.315292-2.430311-7.290934 0-38.884981-2.430311-46.175915-7.290934-34.024358-14.581868-72.909339-26.733425-109.364008-4.860623-17.012179-153.109612-58.327471-179.843036-70.479028-29.163736-14.581868-12.151556-77.769962 26.733425-65.618405 26.733424 7.290934 174.982413 60.757782 174.982413 60.757783l4.860623-7.290934V237.38563799999997s-165.261168 2.430311-184.703659-7.290934c-19.44249-9.721245-182.273347-189.564281-184.703659-187.13397 0 0 0-4.860623-2.430311-7.290934-7.290934-14.581868-2.430311-46.175915 12.151557-53.466848 19.44249-12.151556 43.745603-12.151556 60.757782 4.860622 14.581868 14.581868 63.188094 60.757782 82.630584 77.769962 4.860623 4.860623 31.594047 0 31.594047 0v-160.400546s7.290934-26.733424 31.594047-31.594047c21.872802-4.860623 60.757782 12.151556 60.757782 31.594047 0 12.151556-2.430311 184.703659 0 191.994593l31.594047 31.594047h153.109612s89.921518-4.860623 92.351829 63.188094c2.430311 68.048716 0 291.637356 0 318.37078-2.430311 29.163736-17.012179 48.606226-55.89716 60.757782z m452.037902-376.698251s4.860623 63.188094-58.327471 63.188094-80.200273-2.430311-92.35183 0-31.594047 9.721245-31.594046 31.594046v223.58864s4.860623 46.175915-41.315293 60.757782c-46.175915 14.581868-111.79432-12.151556-111.794319-65.618405v-315.940468s0-55.89716 60.757782-63.188094c53.466849-7.290934 150.6793 0 182.273348 0h2.430311v-223.58864s0-34.024358 31.594047-31.594047c31.594047 2.430311 60.757782 2.430311 60.757782 36.45467 2.430311 31.594047-2.430311 284.346422-2.430311 284.346422zM188.011684 798.787548v-63.188094s-7.290934-9.721245-31.594047 0c-12.151556 4.860623-17.012179 0-17.012179 0l-14.581868-31.594047 60.757783-31.594046s31.594047 0 31.594047 31.594046V798.787548H188.011684z m337.813271-191.994592c51.036537 0 92.351829 43.745603 92.351829 97.212451s-41.315292 97.212452-92.351829 97.212452c-51.036537 0-92.351829-43.745603-92.35183-97.212452s41.315292-97.212452 92.35183-97.212451z m247.891752 0c51.036537 0 92.351829 43.745603 92.351829 97.212451s-41.315292 97.212452-92.351829 97.212452c-51.036537 0-92.351829-43.745603-92.351829-97.212452s41.315292-97.212452 92.351829-97.212451z m-401.001364 97.212451c0 104.503386-82.630584 191.994593-184.703659 191.994593C85.93861 893.569689 0.877714 808.508793 0.877714 704.005407c0-104.503386 82.630584-191.994593 184.703659-191.994592 102.073075 0 187.13397 85.060895 187.13397 191.994592z m-308.649535 0c0 70.479028 55.89716 128.806499 123.945876 128.806499s123.945876-58.327471 123.945876-128.806499-55.89716-131.23681-126.376187-131.23681c-70.479028-2.430311-121.515565 60.757782-121.515565 131.23681z"  horiz-adv-x="1024" />

    
    <glyph glyph-name="-guahao" unicode="&#58939;" d="M69.12 509.44h885.76c7.168 0 12.8-2.048 17.92-6.656s7.168-10.24 7.168-16.896v-509.44c0-26.112-9.728-48.128-29.184-66.56-19.456-18.432-43.008-27.648-71.168-27.648H144.384c-27.648 0-51.712 9.216-71.168 27.648-19.456 18.432-29.184 40.448-29.184 66.56v509.44c0 6.656 2.56 12.288 7.168 16.896 5.12 4.096 11.264 6.656 17.92 6.656z m910.848 86.016c0-6.656-2.56-12.288-7.168-16.896-4.608-4.608-11.264-7.168-17.92-6.656h-885.76c-7.168 0-12.8 2.048-17.92 6.656-4.608 4.608-7.68 10.24-7.168 16.896V666.112c0 26.112 9.728 48.128 29.184 66.56 19.456 18.432 43.008 27.648 71.168 27.648h100.352V862.208c0 6.656 2.56 12.288 7.168 16.896 5.12 4.608 10.752 6.656 17.92 6.656H353.28c7.168 0 12.8-2.048 17.92-6.656s7.168-10.24 7.168-16.896v-101.888h267.264V862.208c0 6.656 2.56 12.288 7.168 16.896 5.12 4.608 10.752 6.656 17.92 6.656h83.456c7.168 0 12.8-2.048 17.92-6.656s7.168-10.24 7.168-16.896v-101.888h100.352c27.648 0 51.712-9.216 71.168-27.648 19.456-18.432 29.184-40.448 29.184-66.56v-70.656z m-308.224-280.064c-14.336 0-26.624-4.608-36.864-14.336-9.728-9.216-15.36-22.016-15.872-34.816 0-9.216 2.56-17.92 7.168-26.112 4.608-7.68 11.264-13.824 19.456-17.92V133.632c0-14.848-4.096-28.16-12.8-40.96-8.192-12.8-20.48-23.04-34.304-29.696-14.336-7.168-30.208-11.264-46.592-10.752-25.088 0-46.592 7.68-64.512 22.528-17.92 15.36-27.648 33.28-28.672 54.784 30.72 6.144 56.32 20.992 76.288 44.032 19.968 22.016 30.72 50.176 30.72 79.36V374.272c0 4.608-1.536 8.704-4.608 12.288-3.072 3.072-6.656 5.632-11.264 6.656l-52.736 10.24c-5.12 0.512-10.752-0.512-14.848-3.584-4.096-2.56-7.168-6.656-8.192-11.264l-3.072-12.288c-1.024-5.12 0-10.24 3.072-14.336 3.072-4.096 7.168-6.656 12.8-7.68l26.112-4.608v-95.744c0-20.48-7.68-37.888-23.552-53.248-15.36-15.36-34.304-22.528-56.32-22.528s-40.96 7.168-56.832 22.016c-15.36 13.824-24.064 33.28-24.064 53.248v96.256l26.112 4.608c5.12 1.024 9.216 4.096 12.288 7.68 3.072 4.096 4.096 9.216 3.072 14.336l-2.56 12.288c-1.024 4.608-4.096 8.704-8.192 11.264-4.608 3.072-9.728 4.096-14.848 2.56l-52.736-9.216c-4.608-1.024-8.192-3.584-11.264-6.656-3.072-3.584-4.608-7.68-4.608-12.288v-121.344c0-29.696 10.24-56.32 30.72-79.36s45.568-37.888 76.288-43.52c0.512-22.528 7.68-45.056 20.992-64 13.312-19.456 31.744-35.84 53.248-46.592 22.528-11.776 47.616-17.408 73.216-17.408s51.2 6.144 73.728 17.408c22.016 11.264 40.448 27.648 53.248 47.616 13.312 19.968 19.456 41.984 19.456 66.048v88.576c8.192 4.096 14.848 10.24 19.456 17.92 4.608 7.68 7.168 16.384 7.168 25.088 0 14.336-5.12 26.112-15.872 35.84-11.264 10.24-25.088 15.36-39.424 14.848z m0.512-62.464c-3.584 0-7.168 1.024-9.728 3.584-2.56 2.56-4.096 5.632-3.584 9.216 0 3.584 1.024 6.656 3.584 9.216 2.56 2.56 6.144 3.584 9.728 3.584 4.096 0 7.168-1.024 9.728-3.584 2.56-2.56 3.584-5.12 3.584-9.216 0-3.584-1.024-6.656-3.584-9.216-2.56-2.56-6.144-3.584-9.728-3.584z"  horiz-adv-x="1024" />

    
    <glyph glyph-name="-zhuyuan" unicode="&#59321;" d="M243.2 441.3L358 324.5l91.8 92.2-85.2 43.3c-43 21.1-71.2 13.9-114.4 4.9-10.9-2.3-14.8-15.7-7-23.6z m671.3 275.2c0 1.9-0.7 3.6-2.1 5-1.3 1.3-3.1 2.1-5 2.1h-49c-1.9 0-3.6 0.7-5 2.1-1.3 1.3-2 3.1-2 5v49c0 3.9-3.1 7-7 7h-49c-1.9 0-3.6-0.7-5-2.1-1.3-1.3-2.1-3.1-2.1-5v-49c0-1.9-0.7-3.6-2.1-5-1.3-1.3-3.1-2.1-5-2.1h-49c-1.9 0-3.6-0.7-5-2.1-1.3-1.3-2-3.1-2-5v-49c0-1.9 0.7-3.6 2-5 1.3-1.3 3.1-2.1 5-2.1h49c1.9 0 3.6-0.7 5-2.1 1.3-1.3 2.1-3.1 2.1-5v-49c0-1.9 0.7-3.6 2.1-5 1.3-1.3 3.1-2 5-2h49c3.8 0 7 3.1 7 7v49c0 1.9 0.7 3.6 2 5 1.3 1.3 3.1 2.1 5 2.1h49c1.9 0 3.6 0.7 5 2.1 1.3 1.3 2.1 3.1 2.1 5v49.1zM932 552H708c-15.4 0-28 12.6-28 28V804c0 15.4 12.6 28 28 28h224c15.4 0 28-12.6 28-28v-224c0-15.4-12.6-28-28-28z m-688.8-55.1c-44.5 0-80.5 36.1-80.5 80.5 0 44.5 36 80.5 80.5 80.5 44.4 0 80.5-36 80.5-80.5 0-44.4-36-80.5-80.5-80.5zM848 79.5H176v49h672v-49zM120 482.2c17 0 32.3-7.7 42.6-19.8L358 265l132.5 133.1 56.2-27.7-58.1-109H536L590.2 363H771c32.3 0 60.9-17.3 77-43.3V356c0 30.8 25.3 56 56 56 30.8 0 56-25.2 56-56v-185.6c0-23.1-18.9-42-42-42V-64h-70v87.5H176V-64h-70V128.5c-23.1 0-42 18.9-42 42V426.2c0 30.8 25.2 56 56 56z"  horiz-adv-x="1024" />

    
    <glyph glyph-name="-hospital" unicode="&#58898;" d="M481.3 401.3h61.4v-64.6h-61.4z m0.5-132.6h61.9v-63.3h-61.9z m-1 264.7h61.8v-61.2h-61.8z m-132.7-0.6h59.8v-62.1h-59.8z m264.5 1.1H673v-62.7h-60.4zM347.2 401.1h62v-63.5h-62z m265.3-0.1h62v-63.3h-62zM346.9 268.4h61.5v-63.7h-61.5z m266.3 0.6h61.2v-63.6h-61.2zM897.3 2.1000000000000227V301.6c0 49-39.7 88.7-88.7 88.7H784V556.6c0 49.1-39.8 88.8-88.8 88.8H529.9v72.4h89.8v43.3h-89.8v73h-46.6v-72.8h-89.8V718h89.8v-72.4H318.2c-49.1 0-88.8-39.8-88.8-88.8v-166.3h-19.8c-49 0-88.7-39.7-88.7-88.7v-299.5H59.1v-44.4h900v44.4h-61.8z m-730.6 0V301.6c0 24.5 19.9 44.4 44.4 44.4h18.3v-343.8h-62.7z m107 0V556.7c0 24.5 19.9 44.4 44.4 44.4h377.1c24.5 0 44.4-19.9 44.4-44.4v-554.6H273.7z m580.7 0h-70.5V346H810c24.5 0 44.4-19.9 44.4-44.4v-299.5z"  horiz-adv-x="1024" />

    


  </font>
</defs>
</svg>
